<?xml version="1.0" standalone="no"?><svg xmlns="http://www.w3.org/2000/svg" viewBox="0 0 1440 320"><path fill="#000b76" fill-opacity="1" d="M0,128L34.3,144C68.6,160,137,192,206,218.7C274.3,245,343,267,411,234.7C480,203,549,117,617,74.7C685.7,32,754,32,823,58.7C891.4,85,960,139,1029,170.7C1097.1,203,1166,213,1234,234.7C1302.9,256,1371,288,1406,304L1440,320L1440,0L1405.7,0C1371.4,0,1303,0,1234,0C1165.7,0,1097,0,1029,0C960,0,891,0,823,0C754.3,0,686,0,617,0C548.6,0,480,0,411,0C342.9,0,274,0,206,0C137.1,0,69,0,34,0L0,0Z"></path></svg>